<?xml version="1.0" encoding="utf-8"?>
<COLLADA xmlns="http://www.collada.org/2005/11/COLLADASchema" version="1.4.1" xmlns:xsi="http://www.w3.org/2001/XMLSchema-instance">
  <asset>
    <contributor>
      <author>Blender User</author>
      <authoring_tool>Blender 4.3.1 commit date:2024-12-10, commit time:07:46, hash:33d812126174</authoring_tool>
    </contributor>
    <created>2025-03-29T18:14:44</created>
    <modified>2025-03-29T18:14:44</modified>
    <unit name="meter" meter="1"/>
    <up_axis>Z_UP</up_axis>
  </asset>
  <library_cameras>
    <camera id="Camera-camera" name="Camera">
      <optics>
        <technique_common>
          <perspective>
            <xfov sid="xfov">39.59775</xfov>
            <aspect_ratio>1.777778</aspect_ratio>
            <znear sid="znear">0.1</znear>
            <zfar sid="zfar">100</zfar>
          </perspective>
        </technique_common>
      </optics>
      <extra>
        <technique profile="blender">
          <shiftx sid="shiftx" type="float">0</shiftx>
          <shifty sid="shifty" type="float">0</shifty>
          <dof_distance sid="dof_distance" type="float">10</dof_distance>
        </technique>
      </extra>
    </camera>
  </library_cameras>
  <library_lights>
    <light id="Light-light" name="Light">
      <technique_common>
        <point>
          <color sid="color">1000 1000 1000</color>
          <constant_attenuation>1</constant_attenuation>
          <linear_attenuation>0</linear_attenuation>
          <quadratic_attenuation>0</quadratic_attenuation>
        </point>
      </technique_common>
      <extra>
        <technique profile="blender">
          <type sid="type" type="int">0</type>
          <flag sid="flag" type="int">0</flag>
          <mode sid="mode" type="int">2097153</mode>
          <red sid="red" type="float">1</red>
          <green sid="green" type="float">1</green>
          <blue sid="blue" type="float">1</blue>
          <energy sid="blender_energy" type="float">1000</energy>
          <spotsize sid="spotsize" type="float">75</spotsize>
          <spotblend sid="spotblend" type="float">0.15</spotblend>
          <clipsta sid="clipsta" type="float">0.04999995</clipsta>
          <clipend sid="clipend" type="float">40</clipend>
          <radius sid="radius" type="float">0.1</radius>
          <area_shape sid="area_shape" type="int">1</area_shape>
          <area_size sid="area_size" type="float">0.1</area_size>
          <area_sizey sid="area_sizey" type="float">0.1</area_sizey>
          <area_sizez sid="area_sizez" type="float">1</area_sizez>
        </technique>
      </extra>
    </light>
  </library_lights>
  <library_effects>
    <effect id="Material_001-effect">
      <profile_COMMON>
        <newparam sid="aerial_grass_rock_diff_4k_jpg-surface">
          <surface type="2D">
            <init_from>aerial_grass_rock_diff_4k_jpg</init_from>
          </surface>
        </newparam>
        <newparam sid="aerial_grass_rock_diff_4k_jpg-sampler">
          <sampler2D>
            <source>aerial_grass_rock_diff_4k_jpg-surface</source>
          </sampler2D>
        </newparam>
        <technique sid="common">
          <lambert>
            <emission>
              <color sid="emission">0 0 0 1</color>
            </emission>
            <diffuse>
              <texture texture="aerial_grass_rock_diff_4k_jpg-sampler" texcoord="UVMap"/>
            </diffuse>
            <index_of_refraction>
              <float sid="ior">1.5</float>
            </index_of_refraction>
          </lambert>
        </technique>
      </profile_COMMON>
    </effect>
  </library_effects>
  <library_images>
    <image id="aerial_grass_rock_diff_4k_jpg" name="aerial_grass_rock_diff_4k_jpg">
      <init_from>aerial_grass_rock_diff_4k.jpg</init_from>
    </image>
  </library_images>
  <library_materials>
    <material id="Material_001-material" name="Material.001">
      <instance_effect url="#Material_001-effect"/>
    </material>
  </library_materials>
  <library_geometries>
    <geometry id="Plane-mesh" name="Plane">
      <mesh>
        <source id="Plane-mesh-positions">
          <float_array id="Plane-mesh-positions-array" count="432">-10 -10 0 10 -10 0 -10 10 0 10 10 0 -10 8.181818 0 -10 6.363636 0 -10 4.545454 0 -10 2.727272 0 -10 0.9090905 0 -10 -0.9090912 0 -10 -2.727273 0 -10 -4.545455 0 -10 -6.363637 0 -10 -8.181818 0 -8.181818 -10 0 -6.363636 -10 0 -4.545454 -10 0 -2.727272 -10 0 -0.9090905 -10 0 0.9090912 -10 0 2.727273 -10 0 4.545455 -10 0 6.363637 -10 0 8.181818 -10 0 10 -8.181818 0 10 -6.363636 0 10 -4.545454 0 10 -2.727272 0 10 -0.9090905 0 10 0.9090912 0 10 2.727273 0 10 4.545455 0 10 6.363637 0 10 8.181818 0 8.181818 10 0 6.363636 10 0 4.545454 10 0 2.727272 10 0 0.9090905 10 0 -0.9090912 10 0 -2.727273 10 0 -4.545455 10 0 -6.363637 10 0 -8.181818 10 0 -8.181818 -8.181818 0 -8.181818 -6.363636 0 -8.181818 -4.545454 0 -8.181818 -2.727272 0 -8.181818 -0.9090905 0 -8.181818 0.9090912 0 -8.181818 2.727273 0 -8.181818 4.545455 0 -8.181818 6.363637 0 -8.181818 8.181818 0 -6.363636 -8.181818 0 -6.363636 -6.363636 0 -6.363636 -4.545454 0 -6.363636 -2.727272 0 -6.363636 -0.9090905 0 -6.363636 0.9090912 0 -6.363636 2.727273 0 -6.363636 4.545455 0 -6.363636 6.363637 0 -6.363637 8.181818 0 -4.545454 -8.181818 0 -4.545454 -6.363636 0 -4.545454 -4.545454 0 -4.545454 -2.727272 0 -4.545454 -0.9090905 0 -4.545454 0.9090912 0 -4.545454 2.727273 0 -4.545454 4.545455 0 -4.545454 6.363637 0 -4.545455 8.181818 0 -2.727272 -8.181818 0 -2.727272 -6.363636 0 -2.727272 -4.545454 0 -2.727272 -2.727272 0 -2.727272 -0.9090905 0 -2.727272 0.9090912 0 -2.727272 2.727273 0 -2.727272 4.545455 0 -2.727273 6.363637 0 -2.727273 8.181818 0 -0.9090906 -8.181818 0 -0.9090906 -6.363636 0 -0.9090907 -4.545454 0 -0.9090908 -2.727272 0 -0.9090908 -0.9090905 0 -0.9090909 0.9090912 0 -0.9090909 2.727273 0 -0.909091 4.545455 0 -0.9090911 6.363637 0 -0.9090911 8.181818 0 0.9090912 -8.181818 0 0.9090911 -6.363636 0 0.9090911 -4.545454 0 0.909091 -2.727272 0 0.9090909 -0.9090905 0 0.9090909 0.9090912 0 0.9090908 2.727273 0 0.9090908 4.545455 0 0.9090907 6.363637 0 0.9090906 8.181818 0 2.727273 -8.181818 0 2.727273 -6.363636 0 2.727273 -4.545454 0 2.727273 -2.727272 0 2.727273 -0.9090905 0 2.727273 0.9090912 0 2.727273 2.727273 0 2.727272 4.545455 0 2.727272 6.363637 0 2.727272 8.181818 0 4.545455 -8.181818 0 4.545455 -6.363636 0 4.545455 -4.545454 0 4.545455 -2.727272 0 4.545455 -0.9090905 0 4.545455 0.9090912 0 4.545455 2.727273 0 4.545455 4.545455 0 4.545454 6.363637 0 4.545454 8.181818 0 6.363637 -8.181818 0 6.363637 -6.363636 0 6.363637 -4.545454 0 6.363637 -2.727272 0 6.363637 -0.9090905 0 6.363637 0.9090912 0 6.363637 2.727273 0 6.363637 4.545455 0 6.363636 6.363637 0 6.363636 8.181818 0 8.181818 -8.181818 0 8.181818 -6.363636 0 8.181818 -4.545454 0 8.181818 -2.727272 0 8.181818 -0.9090905 0 8.181818 0.9090912 0 8.181818 2.727273 0 8.181818 4.545455 0 8.181818 6.363637 0 8.181818 8.181818 0</float_array>
          <technique_common>
            <accessor source="#Plane-mesh-positions-array" count="144" stride="3">
              <param name="X" type="float"/>
              <param name="Y" type="float"/>
              <param name="Z" type="float"/>
            </accessor>
          </technique_common>
        </source>
        <source id="Plane-mesh-normals">
          <float_array id="Plane-mesh-normals-array" count="3">0 0 1</float_array>
          <technique_common>
            <accessor source="#Plane-mesh-normals-array" count="1" stride="3">
              <param name="X" type="float"/>
              <param name="Y" type="float"/>
              <param name="Z" type="float"/>
            </accessor>
          </technique_common>
        </source>
        <source id="Plane-mesh-map-0">
          <float_array id="Plane-mesh-map-0-array" count="1452">1 0.9090909 0.9090909 1 0.9090909 0.9090909 0.09090906 0.9090909 0 1 0 0.9090909 0.1818181 0.9090909 0.09090906 1 0.09090906 0.9090909 0.2727273 0.9090909 0.1818181 1 0.1818181 0.9090909 0.3636364 0.9090909 0.2727273 1 0.2727273 0.9090909 0.3636364 0.9090909 0.4545454 1 0.3636364 1 0.4545454 0.9090909 0.5454546 1 0.4545454 1 0.5454545 0.9090909 0.6363636 1 0.5454546 1 0.6363636 0.9090909 0.7272727 1 0.6363636 1 0.8181818 0.9090909 0.7272727 1 0.7272727 0.9090909 0.9090909 0.9090909 0.8181818 1 0.8181818 0.9090909 0.09090906 0 0 0.09090906 0 0 0.09090906 0.09090906 0 0.1818181 0 0.09090906 0.09090906 0.1818181 0 0.2727273 0 0.1818181 0.09090906 0.2727273 0 0.3636364 0 0.2727273 0.09090906 0.3636364 0 0.4545454 0 0.3636364 0.09090906 0.4545455 0 0.5454546 0 0.4545454 0.09090906 0.5454546 0 0.6363636 0 0.5454546 0.09090906 0.6363637 0 0.7272727 0 0.6363636 0.09090906 0.7272728 0 0.8181818 0 0.7272727 0.09090906 0.8181818 0 0.9090909 0 0.8181818 0.1818181 0 0.09090906 0.09090906 0.09090906 0 0.1818181 0.09090906 0.09090906 0.1818181 0.09090906 0.09090906 0.1818181 0.1818181 0.09090906 0.2727273 0.09090906 0.1818181 0.1818181 0.2727273 0.09090906 0.3636364 0.09090906 0.2727273 0.1818181 0.3636364 0.09090906 0.4545455 0.09090906 0.3636364 0.1818181 0.4545455 0.09090906 0.5454546 0.09090906 0.4545455 0.1818181 0.5454546 0.09090906 0.6363637 0.09090906 0.5454546 0.1818181 0.6363637 0.09090906 0.7272728 0.09090906 0.6363637 0.09090906 0.7272728 0.1818181 0.8181818 0.09090906 0.8181818 0.09090906 0.8181818 0.1818181 0.9090909 0.09090906 0.9090909 0.2727273 0 0.1818181 0.09090906 0.1818181 0 0.2727273 0.09090906 0.1818181 0.1818181 0.1818181 0.09090906 0.2727273 0.1818181 0.1818181 0.2727273 0.1818181 0.1818181 0.2727273 0.2727273 0.1818181 0.3636364 0.1818181 0.2727273 0.2727273 0.3636364 0.1818181 0.4545455 0.1818181 0.3636364 0.2727273 0.4545455 0.1818181 0.5454546 0.1818181 0.4545455 0.2727273 0.5454546 0.1818181 0.6363637 0.1818181 0.5454546 0.2727273 0.6363637 0.1818181 0.7272728 0.1818181 0.6363637 0.1818181 0.7272728 0.2727273 0.8181818 0.1818181 0.8181818 0.1818181 0.8181818 0.2727273 0.9090909 0.1818181 0.9090909 0.3636364 0 0.2727273 0.09090906 0.2727273 0 0.3636364 0.09090906 0.2727273 0.1818181 0.2727273 0.09090906 0.3636364 0.1818181 0.2727273 0.2727273 0.2727273 0.1818181 0.3636364 0.2727273 0.2727273 0.3636364 0.2727273 0.2727273 0.3636364 0.3636364 0.2727273 0.4545455 0.2727273 0.3636364 0.2727273 0.4545455 0.3636364 0.5454546 0.2727273 0.5454546 0.3636364 0.5454546 0.2727273 0.6363637 0.2727273 0.5454546 0.3636364 0.6363637 0.2727273 0.7272728 0.2727273 0.6363637 0.2727273 0.7272728 0.3636364 0.8181818 0.2727273 0.8181818 0.2727273 0.8181818 0.3636364 0.9090909 0.2727273 0.9090909 0.4545455 0 0.3636364 0.09090906 0.3636364 0 0.4545455 0.09090906 0.3636364 0.1818181 0.3636364 0.09090906 0.3636364 0.1818181 0.4545455 0.2727273 0.3636364 0.2727273 0.4545455 0.2727273 0.3636364 0.3636364 0.3636364 0.2727273 0.4545455 0.3636364 0.3636364 0.4545455 0.3636364 0.3636364 0.3636364 0.4545455 0.4545455 0.5454546 0.3636364 0.5454546 0.3636364 0.5454546 0.4545455 0.6363637 0.3636364 0.6363637 0.4545455 0.6363637 0.3636364 0.7272728 0.3636364 0.6363637 0.3636364 0.7272728 0.4545454 0.8181818 0.3636364 0.8181818 0.3636364 0.8181818 0.4545454 0.9090909 0.3636364 0.9090909 0.5454546 0 0.4545455 0.09090906 0.4545455 0 0.5454546 0.09090906 0.4545455 0.1818181 0.4545455 0.09090906 0.5454546 0.1818181 0.4545455 0.2727273 0.4545455 0.1818181 0.5454546 0.2727273 0.4545455 0.3636364 0.4545455 0.2727273 0.5454546 0.3636364 0.4545455 0.4545455 0.4545455 0.3636364 0.5454546 0.4545455 0.4545455 0.5454546 0.4545455 0.4545455 0.5454546 0.5454546 0.4545455 0.6363637 0.4545455 0.5454546 0.5454546 0.6363637 0.4545455 0.7272728 0.4545455 0.6363637 0.5454546 0.7272728 0.4545454 0.8181818 0.4545455 0.7272728 0.5454545 0.8181818 0.4545454 0.9090909 0.4545454 0.8181818 0.6363637 0 0.5454546 0.09090906 0.5454546 0 0.5454546 0.09090906 0.6363637 0.1818181 0.5454546 0.1818181 0.6363637 0.1818181 0.5454546 0.2727273 0.5454546 0.1818181 0.6363637 0.2727273 0.5454546 0.3636364 0.5454546 0.2727273 0.6363637 0.3636364 0.5454546 0.4545455 0.5454546 0.3636364 0.5454546 0.4545455 0.6363638 0.5454546 0.5454546 0.5454546 0.5454546 0.5454546 0.6363638 0.6363637 0.5454546 0.6363637 0.5454546 0.6363637 0.6363638 0.7272728 0.5454546 0.7272728 0.6363638 0.7272728 0.5454545 0.8181818 0.5454546 0.7272728 0.6363637 0.8181818 0.5454545 0.9090909 0.5454545 0.8181818 0.7272728 0 0.6363637 0.09090906 0.6363637 0 0.7272727 0.09090906 0.6363637 0.1818181 0.6363637 0.09090906 0.7272727 0.1818181 0.6363637 0.2727273 0.6363637 0.1818181 0.7272728 0.2727273 0.6363637 0.3636364 0.6363637 0.2727273 0.7272727 0.3636364 0.6363638 0.4545455 0.6363637 0.3636364 0.7272727 0.4545455 0.6363638 0.5454546 0.6363638 0.4545455 0.6363638 0.5454546 0.7272727 0.6363637 0.6363638 0.6363637 0.6363638 0.6363637 0.7272727 0.7272728 0.6363638 0.7272728 0.6363638 0.7272728 0.7272727 0.8181818 0.6363637 0.8181818 0.6363637 0.8181818 0.7272727 0.9090909 0.6363636 0.9090909 0.8181818 0 0.7272727 0.09090906 0.7272728 0 0.8181818 0.09090906 0.7272727 0.1818181 0.7272727 0.09090906 0.8181817 0.1818181 0.7272728 0.2727273 0.7272727 0.1818181 0.8181817 0.2727273 0.7272727 0.3636364 0.7272728 0.2727273 0.8181818 0.3636364 0.7272727 0.4545455 0.7272727 0.3636364 0.8181818 0.4545455 0.7272727 0.5454546 0.7272727 0.4545455 0.8181818 0.5454546 0.7272727 0.6363637 0.7272727 0.5454546 0.8181818 0.6363637 0.7272727 0.7272728 0.7272727 0.6363637 0.7272727 0.7272728 0.8181817 0.8181818 0.7272727 0.8181818 0.7272727 0.8181818 0.8181818 0.9090909 0.7272727 0.9090909 0.9090909 0 0.8181818 0.09090906 0.8181818 0 0.9090909 0.09090906 0.8181817 0.1818181 0.8181818 0.09090906 0.9090908 0.1818181 0.8181817 0.2727273 0.8181817 0.1818181 0.9090908 0.2727273 0.8181818 0.3636364 0.8181817 0.2727273 0.9090908 0.3636364 0.8181818 0.4545455 0.8181818 0.3636364 0.9090908 0.4545455 0.8181818 0.5454546 0.8181818 0.4545455 0.9090909 0.5454546 0.8181818 0.6363637 0.8181818 0.5454546 0.9090909 0.6363637 0.8181818 0.7272728 0.8181818 0.6363637 0.8181818 0.7272728 0.9090909 0.8181818 0.8181817 0.8181818 0.8181817 0.8181818 0.9090909 0.9090909 0.8181818 0.9090909 1 0 0.9090909 0.09090906 0.9090909 0 1 0.09090906 0.9090908 0.1818181 0.9090909 0.09090906 1 0.1818181 0.9090908 0.2727273 0.9090908 0.1818181 1 0.2727273 0.9090908 0.3636364 0.9090908 0.2727273 1 0.3636364 0.9090908 0.4545455 0.9090908 0.3636364 1 0.4545455 0.9090909 0.5454546 0.9090908 0.4545455 1 0.5454546 0.9090909 0.6363637 0.9090909 0.5454546 1 0.6363637 0.9090909 0.7272728 0.9090909 0.6363637 1 0.7272728 0.9090909 0.8181818 0.9090909 0.7272728 1 0.8181818 0.9090909 0.9090909 0.9090909 0.8181818 1 0.9090909 1 1 0.9090909 1 0.09090906 0.9090909 0.09090906 1 0 1 0.1818181 0.9090909 0.1818181 1 0.09090906 1 0.2727273 0.9090909 0.2727273 1 0.1818181 1 0.3636364 0.9090909 0.3636364 1 0.2727273 1 0.3636364 0.9090909 0.4545454 0.9090909 0.4545454 1 0.4545454 0.9090909 0.5454545 0.9090909 0.5454546 1 0.5454545 0.9090909 0.6363636 0.9090909 0.6363636 1 0.6363636 0.9090909 0.7272727 0.9090909 0.7272727 1 0.8181818 0.9090909 0.8181818 1 0.7272727 1 0.9090909 0.9090909 0.9090909 1 0.8181818 1 0.09090906 0 0.09090906 0.09090906 0 0.09090906 0.09090906 0.09090906 0.09090906 0.1818181 0 0.1818181 0.09090906 0.1818181 0.09090906 0.2727273 0 0.2727273 0.09090906 0.2727273 0.09090906 0.3636364 0 0.3636364 0.09090906 0.3636364 0.09090906 0.4545455 0 0.4545454 0.09090906 0.4545455 0.09090906 0.5454546 0 0.5454546 0.09090906 0.5454546 0.09090906 0.6363637 0 0.6363636 0.09090906 0.6363637 0.09090906 0.7272728 0 0.7272727 0.09090906 0.7272728 0.09090906 0.8181818 0 0.8181818 0.09090906 0.8181818 0.09090906 0.9090909 0 0.9090909 0.1818181 0 0.1818181 0.09090906 0.09090906 0.09090906 0.1818181 0.09090906 0.1818181 0.1818181 0.09090906 0.1818181 0.1818181 0.1818181 0.1818181 0.2727273 0.09090906 0.2727273 0.1818181 0.2727273 0.1818181 0.3636364 0.09090906 0.3636364 0.1818181 0.3636364 0.1818181 0.4545455 0.09090906 0.4545455 0.1818181 0.4545455 0.1818181 0.5454546 0.09090906 0.5454546 0.1818181 0.5454546 0.1818181 0.6363637 0.09090906 0.6363637 0.1818181 0.6363637 0.1818181 0.7272728 0.09090906 0.7272728 0.09090906 0.7272728 0.1818181 0.7272728 0.1818181 0.8181818 0.09090906 0.8181818 0.1818181 0.8181818 0.1818181 0.9090909 0.2727273 0 0.2727273 0.09090906 0.1818181 0.09090906 0.2727273 0.09090906 0.2727273 0.1818181 0.1818181 0.1818181 0.2727273 0.1818181 0.2727273 0.2727273 0.1818181 0.2727273 0.2727273 0.2727273 0.2727273 0.3636364 0.1818181 0.3636364 0.2727273 0.3636364 0.2727273 0.4545455 0.1818181 0.4545455 0.2727273 0.4545455 0.2727273 0.5454546 0.1818181 0.5454546 0.2727273 0.5454546 0.2727273 0.6363637 0.1818181 0.6363637 0.2727273 0.6363637 0.2727273 0.7272728 0.1818181 0.7272728 0.1818181 0.7272728 0.2727273 0.7272728 0.2727273 0.8181818 0.1818181 0.8181818 0.2727273 0.8181818 0.2727273 0.9090909 0.3636364 0 0.3636364 0.09090906 0.2727273 0.09090906 0.3636364 0.09090906 0.3636364 0.1818181 0.2727273 0.1818181 0.3636364 0.1818181 0.3636364 0.2727273 0.2727273 0.2727273 0.3636364 0.2727273 0.3636364 0.3636364 0.2727273 0.3636364 0.3636364 0.3636364 0.3636364 0.4545455 0.2727273 0.4545455 0.2727273 0.4545455 0.3636364 0.4545455 0.3636364 0.5454546 0.3636364 0.5454546 0.3636364 0.6363637 0.2727273 0.6363637 0.3636364 0.6363637 0.3636364 0.7272728 0.2727273 0.7272728 0.2727273 0.7272728 0.3636364 0.7272728 0.3636364 0.8181818 0.2727273 0.8181818 0.3636364 0.8181818 0.3636364 0.9090909 0.4545455 0 0.4545455 0.09090906 0.3636364 0.09090906 0.4545455 0.09090906 0.4545455 0.1818181 0.3636364 0.1818181 0.3636364 0.1818181 0.4545455 0.1818181 0.4545455 0.2727273 0.4545455 0.2727273 0.4545455 0.3636364 0.3636364 0.3636364 0.4545455 0.3636364 0.4545455 0.4545455 0.3636364 0.4545455 0.3636364 0.4545455 0.4545455 0.4545455 0.4545455 0.5454546 0.3636364 0.5454546 0.4545455 0.5454546 0.4545455 0.6363637 0.4545455 0.6363637 0.4545455 0.7272728 0.3636364 0.7272728 0.3636364 0.7272728 0.4545455 0.7272728 0.4545454 0.8181818 0.3636364 0.8181818 0.4545454 0.8181818 0.4545454 0.9090909 0.5454546 0 0.5454546 0.09090906 0.4545455 0.09090906 0.5454546 0.09090906 0.5454546 0.1818181 0.4545455 0.1818181 0.5454546 0.1818181 0.5454546 0.2727273 0.4545455 0.2727273 0.5454546 0.2727273 0.5454546 0.3636364 0.4545455 0.3636364 0.5454546 0.3636364 0.5454546 0.4545455 0.4545455 0.4545455 0.5454546 0.4545455 0.5454546 0.5454546 0.4545455 0.5454546 0.5454546 0.5454546 0.5454546 0.6363637 0.4545455 0.6363637 0.5454546 0.6363637 0.5454546 0.7272728 0.4545455 0.7272728 0.5454546 0.7272728 0.5454545 0.8181818 0.4545454 0.8181818 0.5454545 0.8181818 0.5454545 0.9090909 0.4545454 0.9090909 0.6363637 0 0.6363637 0.09090906 0.5454546 0.09090906 0.5454546 0.09090906 0.6363637 0.09090906 0.6363637 0.1818181 0.6363637 0.1818181 0.6363637 0.2727273 0.5454546 0.2727273 0.6363637 0.2727273 0.6363637 0.3636364 0.5454546 0.3636364 0.6363637 0.3636364 0.6363638 0.4545455 0.5454546 0.4545455 0.5454546 0.4545455 0.6363638 0.4545455 0.6363638 0.5454546 0.5454546 0.5454546 0.6363638 0.5454546 0.6363638 0.6363637 0.5454546 0.6363637 0.6363638 0.6363637 0.6363638 0.7272728 0.6363638 0.7272728 0.6363637 0.8181818 0.5454545 0.8181818 0.6363637 0.8181818 0.6363636 0.9090909 0.5454545 0.9090909 0.7272728 0 0.7272727 0.09090906 0.6363637 0.09090906 0.7272727 0.09090906 0.7272727 0.1818181 0.6363637 0.1818181 0.7272727 0.1818181 0.7272728 0.2727273 0.6363637 0.2727273 0.7272728 0.2727273 0.7272727 0.3636364 0.6363637 0.3636364 0.7272727 0.3636364 0.7272727 0.4545455 0.6363638 0.4545455 0.7272727 0.4545455 0.7272727 0.5454546 0.6363638 0.5454546 0.6363638 0.5454546 0.7272727 0.5454546 0.7272727 0.6363637 0.6363638 0.6363637 0.7272727 0.6363637 0.7272727 0.7272728 0.6363638 0.7272728 0.7272727 0.7272728 0.7272727 0.8181818 0.6363637 0.8181818 0.7272727 0.8181818 0.7272727 0.9090909 0.8181818 0 0.8181818 0.09090906 0.7272727 0.09090906 0.8181818 0.09090906 0.8181817 0.1818181 0.7272727 0.1818181 0.8181817 0.1818181 0.8181817 0.2727273 0.7272728 0.2727273 0.8181817 0.2727273 0.8181818 0.3636364 0.7272727 0.3636364 0.8181818 0.3636364 0.8181818 0.4545455 0.7272727 0.4545455 0.8181818 0.4545455 0.8181818 0.5454546 0.7272727 0.5454546 0.8181818 0.5454546 0.8181818 0.6363637 0.7272727 0.6363637 0.8181818 0.6363637 0.8181818 0.7272728 0.7272727 0.7272728 0.7272727 0.7272728 0.8181818 0.7272728 0.8181817 0.8181818 0.7272727 0.8181818 0.8181817 0.8181818 0.8181818 0.9090909 0.9090909 0 0.9090909 0.09090906 0.8181818 0.09090906 0.9090909 0.09090906 0.9090908 0.1818181 0.8181817 0.1818181 0.9090908 0.1818181 0.9090908 0.2727273 0.8181817 0.2727273 0.9090908 0.2727273 0.9090908 0.3636364 0.8181818 0.3636364 0.9090908 0.3636364 0.9090908 0.4545455 0.8181818 0.4545455 0.9090908 0.4545455 0.9090909 0.5454546 0.8181818 0.5454546 0.9090909 0.5454546 0.9090909 0.6363637 0.8181818 0.6363637 0.9090909 0.6363637 0.9090909 0.7272728 0.8181818 0.7272728 0.8181818 0.7272728 0.9090909 0.7272728 0.9090909 0.8181818 0.8181817 0.8181818 0.9090909 0.8181818 0.9090909 0.9090909 1 0 1 0.09090906 0.9090909 0.09090906 1 0.09090906 1 0.1818181 0.9090908 0.1818181 1 0.1818181 1 0.2727273 0.9090908 0.2727273 1 0.2727273 1 0.3636364 0.9090908 0.3636364 1 0.3636364 1 0.4545455 0.9090908 0.4545455 1 0.4545455 1 0.5454546 0.9090909 0.5454546 1 0.5454546 1 0.6363637 0.9090909 0.6363637 1 0.6363637 1 0.7272728 0.9090909 0.7272728 1 0.7272728 1 0.8181818 0.9090909 0.8181818 1 0.8181818 1 0.9090909 0.9090909 0.9090909</float_array>
          <technique_common>
            <accessor source="#Plane-mesh-map-0-array" count="726" stride="2">
              <param name="S" type="float"/>
              <param name="T" type="float"/>
            </accessor>
          </technique_common>
        </source>
        <vertices id="Plane-mesh-vertices">
          <input semantic="POSITION" source="#Plane-mesh-positions"/>
        </vertices>
        <triangles material="Material_001-material" count="242">
          <input semantic="VERTEX" source="#Plane-mesh-vertices" offset="0"/>
          <input semantic="NORMAL" source="#Plane-mesh-normals" offset="1"/>
          <input semantic="TEXCOORD" source="#Plane-mesh-map-0" offset="2" set="0"/>
          <p>33 0 0 34 0 1 143 0 2 53 0 3 2 0 4 4 0 5 63 0 6 43 0 7 53 0 8 73 0 9 42 0 10 63 0 11 83 0 12 41 0 13 73 0 14 83 0 15 39 0 16 40 0 17 93 0 18 38 0 19 39 0 20 103 0 21 37 0 22 38 0 23 113 0 24 36 0 25 37 0 26 133 0 27 36 0 28 123 0 29 143 0 30 35 0 31 133 0 32 14 0 33 13 0 34 0 0 35 44 0 36 12 0 37 13 0 38 45 0 39 11 0 40 12 0 41 46 0 42 10 0 43 11 0 44 47 0 45 9 0 46 10 0 47 48 0 48 8 0 49 9 0 50 49 0 51 7 0 52 8 0 53 50 0 54 6 0 55 7 0 56 51 0 57 5 0 58 6 0 59 52 0 60 4 0 61 5 0 62 15 0 63 44 0 64 14 0 65 54 0 66 45 0 67 44 0 68 55 0 69 46 0 70 45 0 71 56 0 72 47 0 73 46 0 74 57 0 75 48 0 76 47 0 77 58 0 78 49 0 79 48 0 80 59 0 81 50 0 82 49 0 83 60 0 84 51 0 85 50 0 86 51 0 87 62 0 88 52 0 89 52 0 90 63 0 91 53 0 92 16 0 93 54 0 94 15 0 95 64 0 96 55 0 97 54 0 98 65 0 99 56 0 100 55 0 101 66 0 102 57 0 103 56 0 104 67 0 105 58 0 106 57 0 107 68 0 108 59 0 109 58 0 110 69 0 111 60 0 112 59 0 113 70 0 114 61 0 115 60 0 116 61 0 117 72 0 118 62 0 119 62 0 120 73 0 121 63 0 122 17 0 123 64 0 124 16 0 125 74 0 126 65 0 127 64 0 128 75 0 129 66 0 130 65 0 131 76 0 132 67 0 133 66 0 134 77 0 135 68 0 136 67 0 137 68 0 138 79 0 139 69 0 140 79 0 141 70 0 142 69 0 143 80 0 144 71 0 145 70 0 146 71 0 147 82 0 148 72 0 149 72 0 150 83 0 151 73 0 152 18 0 153 74 0 154 17 0 155 84 0 156 75 0 157 74 0 158 75 0 159 86 0 160 76 0 161 86 0 162 77 0 163 76 0 164 87 0 165 78 0 166 77 0 167 78 0 168 89 0 169 79 0 170 79 0 171 90 0 172 80 0 173 90 0 174 81 0 175 80 0 176 81 0 177 92 0 178 82 0 179 82 0 180 93 0 181 83 0 182 19 0 183 84 0 184 18 0 185 94 0 186 85 0 187 84 0 188 95 0 189 86 0 190 85 0 191 96 0 192 87 0 193 86 0 194 97 0 195 88 0 196 87 0 197 98 0 198 89 0 199 88 0 200 99 0 201 90 0 202 89 0 203 100 0 204 91 0 205 90 0 206 101 0 207 92 0 208 91 0 209 102 0 210 93 0 211 92 0 212 20 0 213 94 0 214 19 0 215 94 0 216 105 0 217 95 0 218 105 0 219 96 0 220 95 0 221 106 0 222 97 0 223 96 0 224 107 0 225 98 0 226 97 0 227 98 0 228 109 0 229 99 0 230 99 0 231 110 0 232 100 0 233 100 0 234 111 0 235 101 0 236 111 0 237 102 0 238 101 0 239 112 0 240 103 0 241 102 0 242 21 0 243 104 0 244 20 0 245 114 0 246 105 0 247 104 0 248 115 0 249 106 0 250 105 0 251 116 0 252 107 0 253 106 0 254 117 0 255 108 0 256 107 0 257 118 0 258 109 0 259 108 0 260 109 0 261 120 0 262 110 0 263 110 0 264 121 0 265 111 0 266 111 0 267 122 0 268 112 0 269 112 0 270 123 0 271 113 0 272 22 0 273 114 0 274 21 0 275 124 0 276 115 0 277 114 0 278 125 0 279 116 0 280 115 0 281 126 0 282 117 0 283 116 0 284 127 0 285 118 0 286 117 0 287 128 0 288 119 0 289 118 0 290 129 0 291 120 0 292 119 0 293 130 0 294 121 0 295 120 0 296 121 0 297 132 0 298 122 0 299 122 0 300 133 0 301 123 0 302 23 0 303 124 0 304 22 0 305 134 0 306 125 0 307 124 0 308 135 0 309 126 0 310 125 0 311 136 0 312 127 0 313 126 0 314 137 0 315 128 0 316 127 0 317 138 0 318 129 0 319 128 0 320 139 0 321 130 0 322 129 0 323 140 0 324 131 0 325 130 0 326 131 0 327 142 0 328 132 0 329 132 0 330 143 0 331 133 0 332 1 0 333 134 0 334 23 0 335 24 0 336 135 0 337 134 0 338 25 0 339 136 0 340 135 0 341 26 0 342 137 0 343 136 0 344 27 0 345 138 0 346 137 0 347 28 0 348 139 0 349 138 0 350 29 0 351 140 0 352 139 0 353 30 0 354 141 0 355 140 0 356 31 0 357 142 0 358 141 0 359 32 0 360 143 0 361 142 0 362 33 0 363 3 0 364 34 0 365 53 0 366 43 0 367 2 0 368 63 0 369 42 0 370 43 0 371 73 0 372 41 0 373 42 0 374 83 0 375 40 0 376 41 0 377 83 0 378 93 0 379 39 0 380 93 0 381 103 0 382 38 0 383 103 0 384 113 0 385 37 0 386 113 0 387 123 0 388 36 0 389 133 0 390 35 0 391 36 0 392 143 0 393 34 0 394 35 0 395 14 0 396 44 0 397 13 0 398 44 0 399 45 0 400 12 0 401 45 0 402 46 0 403 11 0 404 46 0 405 47 0 406 10 0 407 47 0 408 48 0 409 9 0 410 48 0 411 49 0 412 8 0 413 49 0 414 50 0 415 7 0 416 50 0 417 51 0 418 6 0 419 51 0 420 52 0 421 5 0 422 52 0 423 53 0 424 4 0 425 15 0 426 54 0 427 44 0 428 54 0 429 55 0 430 45 0 431 55 0 432 56 0 433 46 0 434 56 0 435 57 0 436 47 0 437 57 0 438 58 0 439 48 0 440 58 0 441 59 0 442 49 0 443 59 0 444 60 0 445 50 0 446 60 0 447 61 0 448 51 0 449 51 0 450 61 0 451 62 0 452 52 0 453 62 0 454 63 0 455 16 0 456 64 0 457 54 0 458 64 0 459 65 0 460 55 0 461 65 0 462 66 0 463 56 0 464 66 0 465 67 0 466 57 0 467 67 0 468 68 0 469 58 0 470 68 0 471 69 0 472 59 0 473 69 0 474 70 0 475 60 0 476 70 0 477 71 0 478 61 0 479 61 0 480 71 0 481 72 0 482 62 0 483 72 0 484 73 0 485 17 0 486 74 0 487 64 0 488 74 0 489 75 0 490 65 0 491 75 0 492 76 0 493 66 0 494 76 0 495 77 0 496 67 0 497 77 0 498 78 0 499 68 0 500 68 0 501 78 0 502 79 0 503 79 0 504 80 0 505 70 0 506 80 0 507 81 0 508 71 0 509 71 0 510 81 0 511 82 0 512 72 0 513 82 0 514 83 0 515 18 0 516 84 0 517 74 0 518 84 0 519 85 0 520 75 0 521 75 0 522 85 0 523 86 0 524 86 0 525 87 0 526 77 0 527 87 0 528 88 0 529 78 0 530 78 0 531 88 0 532 89 0 533 79 0 534 89 0 535 90 0 536 90 0 537 91 0 538 81 0 539 81 0 540 91 0 541 92 0 542 82 0 543 92 0 544 93 0 545 19 0 546 94 0 547 84 0 548 94 0 549 95 0 550 85 0 551 95 0 552 96 0 553 86 0 554 96 0 555 97 0 556 87 0 557 97 0 558 98 0 559 88 0 560 98 0 561 99 0 562 89 0 563 99 0 564 100 0 565 90 0 566 100 0 567 101 0 568 91 0 569 101 0 570 102 0 571 92 0 572 102 0 573 103 0 574 93 0 575 20 0 576 104 0 577 94 0 578 94 0 579 104 0 580 105 0 581 105 0 582 106 0 583 96 0 584 106 0 585 107 0 586 97 0 587 107 0 588 108 0 589 98 0 590 98 0 591 108 0 592 109 0 593 99 0 594 109 0 595 110 0 596 100 0 597 110 0 598 111 0 599 111 0 600 112 0 601 102 0 602 112 0 603 113 0 604 103 0 605 21 0 606 114 0 607 104 0 608 114 0 609 115 0 610 105 0 611 115 0 612 116 0 613 106 0 614 116 0 615 117 0 616 107 0 617 117 0 618 118 0 619 108 0 620 118 0 621 119 0 622 109 0 623 109 0 624 119 0 625 120 0 626 110 0 627 120 0 628 121 0 629 111 0 630 121 0 631 122 0 632 112 0 633 122 0 634 123 0 635 22 0 636 124 0 637 114 0 638 124 0 639 125 0 640 115 0 641 125 0 642 126 0 643 116 0 644 126 0 645 127 0 646 117 0 647 127 0 648 128 0 649 118 0 650 128 0 651 129 0 652 119 0 653 129 0 654 130 0 655 120 0 656 130 0 657 131 0 658 121 0 659 121 0 660 131 0 661 132 0 662 122 0 663 132 0 664 133 0 665 23 0 666 134 0 667 124 0 668 134 0 669 135 0 670 125 0 671 135 0 672 136 0 673 126 0 674 136 0 675 137 0 676 127 0 677 137 0 678 138 0 679 128 0 680 138 0 681 139 0 682 129 0 683 139 0 684 140 0 685 130 0 686 140 0 687 141 0 688 131 0 689 131 0 690 141 0 691 142 0 692 132 0 693 142 0 694 143 0 695 1 0 696 24 0 697 134 0 698 24 0 699 25 0 700 135 0 701 25 0 702 26 0 703 136 0 704 26 0 705 27 0 706 137 0 707 27 0 708 28 0 709 138 0 710 28 0 711 29 0 712 139 0 713 29 0 714 30 0 715 140 0 716 30 0 717 31 0 718 141 0 719 31 0 720 32 0 721 142 0 722 32 0 723 33 0 724 143 0 725</p>
        </triangles>
      </mesh>
    </geometry>
  </library_geometries>
  <library_visual_scenes>
    <visual_scene id="Scene" name="Scene">
      <node id="Plane" name="Plane" type="NODE">
        <matrix sid="transform">1 0 0 0 0 1 0 0 0 0 1 0 0 0 0 1</matrix>
        <instance_geometry url="#Plane-mesh" name="Plane">
          <bind_material>
            <technique_common>
              <instance_material symbol="Material_001-material" target="#Material_001-material">
                <bind_vertex_input semantic="UVMap" input_semantic="TEXCOORD" input_set="0"/>
              </instance_material>
            </technique_common>
          </bind_material>
        </instance_geometry>
      </node>
      <node id="Camera" name="Camera" type="NODE">
        <matrix sid="transform">0.6859207 -0.3240135 0.6515582 7.358891 0.7276763 0.3054208 -0.6141704 -6.925791 0 0.8953956 0.4452714 4.958309 0 0 0 1</matrix>
        <instance_camera url="#Camera-camera"/>
      </node>
      <node id="Light" name="Light" type="NODE">
        <matrix sid="transform">-0.2908646 -0.7711008 0.5663932 4.076245 0.9551712 -0.1998834 0.2183912 1.005454 -0.05518906 0.6045247 0.7946723 5.903862 0 0 0 1</matrix>
        <instance_light url="#Light-light"/>
      </node>
    </visual_scene>
  </library_visual_scenes>
  <scene>
    <instance_visual_scene url="#Scene"/>
  </scene>
</COLLADA>